<?xml version="1.0" encoding="UTF-8" standalone="no"?>
<!-- Created by Symbolator http://kevinpt.github.io/symbolator -->
<svg xmlns="http://www.w3.org/2000/svg"
xmlns:xlink="http://www.w3.org/1999/xlink"
xml:space="preserve"
width="272" height="434" viewBox="-86 -20 272.0 434.0" version="1.1">
<style type="text/css">
<![CDATA[
.fnt1 {fill:#000000;
    font-family:Helvetica; font-size:12pt; font-weight:normal; font-style:normal;}
.fnt2 {fill:#000000;
    font-family:Times; font-size:12pt; font-weight:normal; font-style:italic;}
.label {fill:#000;
  text-anchor:middle;
  font-size:16pt; font-weight:bold; font-family:Sans;}
.link {fill: #0D47A1;}
.link:hover {fill: #0D47A1; text-decoration:underline;}
.link:visited {fill: #4A148C;}
]]>
</style>
<defs>

</defs>
<rect x="-86" y="-20" width="100%" height="100%" fill="white"/><g transform="translate(0,0)">
<rect x="0" y="-15.0" width="100" height="50.0" stroke="#646464" fill="#C8C8C8" stroke-width="1"/>
<g transform="translate(0,0)">
<line x1="-20" y1="0" x2="0" y2="0" stroke="#000000" fill="none" stroke-width="1"/>
<text class="fnt1" x="10" y="0" text-anchor="normal" dy="7.0">N</text>
</g>
<g transform="translate(0,20)">
<line x1="-20" y1="0" x2="0" y2="0" stroke="#000000" fill="none" stroke-width="1"/>
<text class="fnt1" x="10" y="0" text-anchor="normal" dy="7.0">O</text>
</g>
</g>
<rect x="1.0" y="-14.0" width="98.0" height="48.0" stroke="#646464" fill="none" stroke-width="3"/>
<g transform="translate(0,58.0)">
<rect x="0" y="-15.0" width="100" height="93.0" stroke="#000000" fill="#CCFED2" stroke-width="1"/>
<text class="fnt2" x="50.0" y="0" text-anchor="middle" dy="6.5">Operands</text>
<g transform="translate(0,23)">
<line x1="-20" y1="0" x2="0" y2="0" stroke="#000000" fill="none" stroke-width="3"/>
<text class="fnt1" x="10" y="0" text-anchor="normal" dy="7.0">A</text>
<text class="fnt1" x="-30" y="0" text-anchor="end" dy="7.0" style="fill:#969696"> <tspan fill="#039BE5">[N-1:0]</tspan></text>
</g>
<g transform="translate(0,43)">
<line x1="-20" y1="0" x2="0" y2="0" stroke="#000000" fill="none" stroke-width="3"/>
<text class="fnt1" x="10" y="0" text-anchor="normal" dy="7.0">B</text>
<text class="fnt1" x="-30" y="0" text-anchor="end" dy="7.0" style="fill:#969696"> <tspan fill="#039BE5">[N-1:0]</tspan></text>
</g>
<g transform="translate(0,63)">
<line x1="-20" y1="0" x2="0" y2="0" stroke="#000000" fill="none" stroke-width="1"/>
<text class="fnt1" x="10" y="0" text-anchor="normal" dy="7.0">Cin</text>
</g>
</g>
<g transform="translate(0,151.0)">
<rect x="0" y="-15.0" width="100" height="53.0" stroke="#000000" fill="#FFF6B1" stroke-width="1"/>
<text class="fnt2" x="50.0" y="0" text-anchor="middle" dy="6.5">Inversion</text>
<g transform="translate(0,23)">
<line x1="-20" y1="0" x2="0" y2="0" stroke="#000000" fill="none" stroke-width="1"/>
<text class="fnt1" x="10" y="0" text-anchor="normal" dy="7.0">invA</text>
</g>
</g>
<g transform="translate(0,204.0)">
<rect x="0" y="-15.0" width="100" height="53.0" stroke="#000000" fill="#FFF6B1" stroke-width="1"/>
<text class="fnt2" x="50.0" y="0" text-anchor="middle" dy="6.5">Inversion</text>
<g transform="translate(0,23)">
<line x1="-20" y1="0" x2="0" y2="0" stroke="#000000" fill="none" stroke-width="1"/>
<text class="fnt1" x="10" y="0" text-anchor="normal" dy="7.0">invB</text>
</g>
</g>
<g transform="translate(0,257.0)">
<rect x="0" y="-15.0" width="100" height="73.0" stroke="#000000" fill="#FFF6B1" stroke-width="1"/>
<text class="fnt2" x="50.0" y="0" text-anchor="middle" dy="6.5">OpCode</text>
<g transform="translate(0,23)">
<line x1="-20" y1="0" x2="0" y2="0" stroke="#000000" fill="none" stroke-width="3"/>
<text class="fnt1" x="10" y="0" text-anchor="normal" dy="7.0">Op</text>
<text class="fnt1" x="-30" y="0" text-anchor="end" dy="7.0" style="fill:#969696"> <tspan fill="#039BE5">[O-1:0]</tspan></text>
</g>
<g transform="translate(0,43)">
<line x1="-20" y1="0" x2="0" y2="0" stroke="#000000" fill="none" stroke-width="1"/>
<text class="fnt1" x="10" y="0" text-anchor="normal" dy="7.0">sign</text>
</g>
</g>
<g transform="translate(0,330.0)">
<rect x="0" y="-15.0" width="100" height="93.0" stroke="#000000" fill="#CCFED2" stroke-width="1"/>
<text class="fnt2" x="50.0" y="0" text-anchor="middle" dy="6.5">Data Out</text>
<g transform="translate(100,23)">
<line x1="20" y1="0" x2="0" y2="0" stroke="#000000" fill="none" stroke-width="3"/>
<text class="fnt1" x="-10" y="0" text-anchor="end" dy="7.0">Out</text>
<text class="fnt1" x="30" y="0" text-anchor="normal" dy="7.0" style="fill:#969696"> <tspan fill="#039BE5">[N-1:0]</tspan></text>
</g>
<g transform="translate(100,43)">
<line x1="20" y1="0" x2="0" y2="0" stroke="#000000" fill="none" stroke-width="1"/>
<text class="fnt1" x="-10" y="0" text-anchor="end" dy="7.0">Ofl</text>
</g>
<g transform="translate(100,63)">
<line x1="20" y1="0" x2="0" y2="0" stroke="#000000" fill="none" stroke-width="1"/>
<text class="fnt1" x="-10" y="0" text-anchor="end" dy="7.0">Zero</text>
</g>
</g>
<rect x="1.0" y="44.0" width="98.0" height="363.0" stroke="#000000" fill="none" stroke-width="3"/>
</svg>