<?xml version="1.0" encoding="UTF-8" standalone="no"?><svg xmlns="http://www.w3.org/2000/svg" xmlns:xlink="http://www.w3.org/1999/xlink" contentScriptType="application/ecmascript" contentStyleType="text/css" height="1068px" preserveAspectRatio="none" style="width:988px;height:1068px;" version="1.1" viewBox="0 0 988 1068" width="988px" zoomAndPan="magnify"><defs><filter height="300%" id="f18vmcwucaa0ph" width="300%" x="-1" y="-1"><feGaussianBlur result="blurOut" stdDeviation="2.0"/><feColorMatrix in="blurOut" result="blurOut2" type="matrix" values="0 0 0 0 0 0 0 0 0 0 0 0 0 0 0 0 0 0 .4 0"/><feOffset dx="4.0" dy="4.0" in="blurOut2" result="blurOut3"/><feBlend in="SourceGraphic" in2="blurOut3" mode="normal"/></filter></defs><g><rect fill="#FEFECE" filter="url(#f18vmcwucaa0ph)" height="50" rx="12.5" ry="12.5" style="stroke: #A80036; stroke-width: 1.5;" width="90" x="139.5" y="8"/><line style="stroke: #A80036; stroke-width: 1.5;" x1="139.5" x2="229.5" y1="37.0679" y2="37.0679"/><text fill="#000000" font-family="sans-serif" font-size="14" lengthAdjust="spacingAndGlyphs" textLength="70" x="149.5" y="27.9659">is mem op</text><ellipse cx="76.5" cy="33" fill="#000000" filter="url(#f18vmcwucaa0ph)" rx="10" ry="10" style="stroke: none; stroke-width: 1.0;"/><rect fill="#FEFECE" filter="url(#f18vmcwucaa0ph)" height="153.4767" rx="12.5" ry="12.5" style="stroke: #A80036; stroke-width: 1.5;" width="141" x="6" y="180"/><line style="stroke: #A80036; stroke-width: 1.5;" x1="6" x2="147" y1="209.0679" y2="209.0679"/><text fill="#000000" font-family="sans-serif" font-size="14" lengthAdjust="spacingAndGlyphs" textLength="121" x="16" y="199.9659">Do Compare Read</text><text fill="#000000" font-family="sans-serif" font-size="12" lengthAdjust="spacingAndGlyphs" textLength="57" x="11" y="226.896">comp_1=1</text><text fill="#000000" font-family="sans-serif" font-size="12" lengthAdjust="spacingAndGlyphs" textLength="54" x="11" y="243.2401">write_1=0</text><text fill="#000000" font-family="sans-serif" font-size="12" lengthAdjust="spacingAndGlyphs" textLength="57" x="11" y="259.5842">comp_2=1</text><text fill="#000000" font-family="sans-serif" font-size="12" lengthAdjust="spacingAndGlyphs" textLength="54" x="11" y="275.9283">write_2=0</text><text fill="#000000" font-family="sans-serif" font-size="12" lengthAdjust="spacingAndGlyphs" textLength="105" x="11" y="292.2725">tag_in=addr[15:11]</text><text fill="#000000" font-family="sans-serif" font-size="12" lengthAdjust="spacingAndGlyphs" textLength="95" x="11" y="308.6166">index=addr[10:3]</text><text fill="#000000" font-family="sans-serif" font-size="12" lengthAdjust="spacingAndGlyphs" textLength="90" x="11" y="324.9607">offset=addr[2:0]</text><rect fill="#FEFECE" filter="url(#f18vmcwucaa0ph)" height="202.5091" rx="12.5" ry="12.5" style="stroke: #A80036; stroke-width: 1.5;" width="143" x="648" y="155"/><line style="stroke: #A80036; stroke-width: 1.5;" x1="648" x2="791" y1="184.0679" y2="184.0679"/><text fill="#000000" font-family="sans-serif" font-size="14" lengthAdjust="spacingAndGlyphs" textLength="123" x="658" y="174.9659">Do Compare Write</text><text fill="#000000" font-family="sans-serif" font-size="12" lengthAdjust="spacingAndGlyphs" textLength="45" x="653" y="201.896">comp=1</text><text fill="#000000" font-family="sans-serif" font-size="12" lengthAdjust="spacingAndGlyphs" textLength="42" x="653" y="218.2401">write=1</text><text fill="#000000" font-family="sans-serif" font-size="12" lengthAdjust="spacingAndGlyphs" textLength="105" x="653" y="234.5842">tag_in=addr[15:11]</text><text fill="#000000" font-family="sans-serif" font-size="12" lengthAdjust="spacingAndGlyphs" textLength="95" x="653" y="250.9283">index=addr[10:3]</text><text fill="#000000" font-family="sans-serif" font-size="12" lengthAdjust="spacingAndGlyphs" textLength="90" x="653" y="267.2725">offset=addr[2:0]</text><text fill="#000000" font-family="sans-serif" font-size="12" lengthAdjust="spacingAndGlyphs" textLength="87" x="653" y="283.6166">data_in=data_in</text><text fill="#000000" font-family="sans-serif" font-size="12" lengthAdjust="spacingAndGlyphs" textLength="105" x="653" y="299.9607">tag_in=addr[15:11]</text><text fill="#000000" font-family="sans-serif" font-size="12" lengthAdjust="spacingAndGlyphs" textLength="90" x="653" y="316.3048">offset=addr[2:0]</text><text fill="#000000" font-family="sans-serif" font-size="12" lengthAdjust="spacingAndGlyphs" textLength="0" x="656" y="332.6489"/><text fill="#000000" font-family="sans-serif" font-size="12" lengthAdjust="spacingAndGlyphs" textLength="75" x="653" y="348.993">srcout=cache</text><rect fill="#FEFECE" filter="url(#f18vmcwucaa0ph)" height="186.1649" rx="12.5" ry="12.5" style="stroke: #A80036; stroke-width: 1.5;" width="205" x="76" y="437"/><line style="stroke: #A80036; stroke-width: 1.5;" x1="76" x2="281" y1="466.0679" y2="466.0679"/><text fill="#000000" font-family="sans-serif" font-size="14" lengthAdjust="spacingAndGlyphs" textLength="83" x="137" y="456.9659">Access Read</text><text fill="#000000" font-family="sans-serif" font-size="12" lengthAdjust="spacingAndGlyphs" textLength="45" x="81" y="483.896">comp=0</text><text fill="#000000" font-family="sans-serif" font-size="12" lengthAdjust="spacingAndGlyphs" textLength="42" x="81" y="500.2401">write=0</text><text fill="#000000" font-family="sans-serif" font-size="12" lengthAdjust="spacingAndGlyphs" textLength="95" x="81" y="516.5842">index=addr[10:3]</text><text fill="#000000" font-family="sans-serif" font-size="12" lengthAdjust="spacingAndGlyphs" textLength="90" x="81" y="532.9283">offset=addr[2:0]</text><text fill="#000000" font-family="sans-serif" font-size="12" lengthAdjust="spacingAndGlyphs" textLength="0" x="84" y="549.2725"/><text fill="#000000" font-family="sans-serif" font-size="12" lengthAdjust="spacingAndGlyphs" textLength="168" x="81" y="565.6166">bank.Addr[15:11]=addr[15:11]</text><text fill="#000000" font-family="sans-serif" font-size="12" lengthAdjust="spacingAndGlyphs" textLength="185" x="81" y="581.9607">bank.Addr[10:3]=cache.index_out</text><text fill="#000000" font-family="sans-serif" font-size="12" lengthAdjust="spacingAndGlyphs" textLength="177" x="81" y="598.3048">bank.Addr[2:0]=cacheoffset_out</text><text fill="#000000" font-family="sans-serif" font-size="12" lengthAdjust="spacingAndGlyphs" textLength="0" x="84" y="614.6489"/><rect fill="#FEFECE" filter="url(#f18vmcwucaa0ph)" height="55.412" rx="12.5" ry="12.5" style="stroke: #A80036; stroke-width: 1.5;" width="55" x="366" y="1002"/><line style="stroke: #A80036; stroke-width: 1.5;" x1="366" x2="421" y1="1031.0679" y2="1031.0679"/><text fill="#000000" font-family="sans-serif" font-size="14" lengthAdjust="spacingAndGlyphs" textLength="35" x="376" y="1021.9659">Done</text><text fill="#000000" font-family="sans-serif" font-size="12" lengthAdjust="spacingAndGlyphs" textLength="35" x="371" y="1048.896">srcout</text><rect fill="#FEFECE" filter="url(#f18vmcwucaa0ph)" height="50" rx="12.5" ry="12.5" style="stroke: #A80036; stroke-width: 1.5;" width="140" x="199.5" y="231.5"/><line style="stroke: #A80036; stroke-width: 1.5;" x1="199.5" x2="339.5" y1="260.5679" y2="260.5679"/><text fill="#000000" font-family="sans-serif" font-size="14" lengthAdjust="spacingAndGlyphs" textLength="120" x="209.5" y="251.4659">compare_rd_done</text><rect fill="#FEFECE" filter="url(#f18vmcwucaa0ph)" height="88.1003" rx="12.5" ry="12.5" style="stroke: #A80036; stroke-width: 1.5;" width="120" x="333.5" y="486"/><line style="stroke: #A80036; stroke-width: 1.5;" x1="333.5" x2="453.5" y1="515.0679" y2="515.0679"/><text fill="#000000" font-family="sans-serif" font-size="14" lengthAdjust="spacingAndGlyphs" textLength="100" x="343.5" y="505.9659">Evict + Replace</text><text fill="#000000" font-family="sans-serif" font-size="12" lengthAdjust="spacingAndGlyphs" textLength="59" x="338.5" y="532.896">addr=addr</text><text fill="#000000" font-family="sans-serif" font-size="12" lengthAdjust="spacingAndGlyphs" textLength="26" x="338.5" y="549.2401">rd=1</text><text fill="#000000" font-family="sans-serif" font-size="12" lengthAdjust="spacingAndGlyphs" textLength="28" x="338.5" y="565.5842">wr=0</text><rect fill="#FEFECE" filter="url(#f18vmcwucaa0ph)" height="55.412" rx="12.5" ry="12.5" style="stroke: #A80036; stroke-width: 1.5;" width="95" x="33" y="653"/><line style="stroke: #A80036; stroke-width: 1.5;" x1="33" x2="128" y1="682.0679" y2="682.0679"/><text fill="#000000" font-family="sans-serif" font-size="14" lengthAdjust="spacingAndGlyphs" textLength="58" x="51.5" y="672.9659">Good Hit</text><text fill="#000000" font-family="sans-serif" font-size="12" lengthAdjust="spacingAndGlyphs" textLength="75" x="38" y="699.896">srcout=cache</text><rect fill="#FEFECE" filter="url(#f18vmcwucaa0ph)" height="202.5091" rx="12.5" ry="12.5" style="stroke: #A80036; stroke-width: 1.5;" width="176" x="305.5" y="738"/><line style="stroke: #A80036; stroke-width: 1.5;" x1="305.5" x2="481.5" y1="767.0679" y2="767.0679"/><text fill="#000000" font-family="sans-serif" font-size="14" lengthAdjust="spacingAndGlyphs" textLength="85" x="351" y="757.9659">Access Write</text><text fill="#000000" font-family="sans-serif" font-size="12" lengthAdjust="spacingAndGlyphs" textLength="45" x="310.5" y="784.896">comp=0</text><text fill="#000000" font-family="sans-serif" font-size="12" lengthAdjust="spacingAndGlyphs" textLength="42" x="310.5" y="801.2401">write=1</text><text fill="#000000" font-family="sans-serif" font-size="12" lengthAdjust="spacingAndGlyphs" textLength="105" x="310.5" y="817.5842">tag_in=addr[15:11]</text><text fill="#000000" font-family="sans-serif" font-size="12" lengthAdjust="spacingAndGlyphs" textLength="95" x="310.5" y="833.9283">index=addr[10:3]</text><text fill="#000000" font-family="sans-serif" font-size="12" lengthAdjust="spacingAndGlyphs" textLength="90" x="310.5" y="850.2725">offset=addr[2:0]</text><text fill="#000000" font-family="sans-serif" font-size="12" lengthAdjust="spacingAndGlyphs" textLength="55" x="310.5" y="866.6166">valid_in=1</text><text fill="#000000" font-family="sans-serif" font-size="12" lengthAdjust="spacingAndGlyphs" textLength="156" x="310.5" y="882.9607">data_in=bank.DataOut[15:0]</text><text fill="#000000" font-family="sans-serif" font-size="12" lengthAdjust="spacingAndGlyphs" textLength="0" x="313.5" y="899.3048"/><text fill="#000000" font-family="sans-serif" font-size="12" lengthAdjust="spacingAndGlyphs" textLength="0" x="313.5" y="915.6489"/><text fill="#000000" font-family="sans-serif" font-size="12" lengthAdjust="spacingAndGlyphs" textLength="69" x="310.5" y="931.993">srcout=bank</text><!--link *start to memop--><path d="M86.8555,33 C97.955,33 116.4025,33 134.2923,33 " fill="none" id="*start-memop" style="stroke: #A80036; stroke-width: 1.0;"/><polygon fill="#A80036" points="139.3167,33,130.3167,29,134.3167,33,130.3167,37,139.3167,33" style="stroke: #A80036; stroke-width: 1.0;"/><text fill="#000000" font-family="sans-serif" font-size="13" lengthAdjust="spacingAndGlyphs" textLength="16" x="105" y="25.897">clk</text><!--link memop to memop--><path d="M229.7328,19.6187 C248.5495,18.6958 264.5,23.1562 264.5,33 C264.5,41.9209 251.4,46.4206 234.9387,46.499 " fill="none" id="memop-memop" style="stroke: #A80036; stroke-width: 1.0;"/><polygon fill="#A80036" points="229.7328,46.3813,238.6401,50.5837,234.7315,46.4943,238.8209,42.5857,229.7328,46.3813" style="stroke: #A80036; stroke-width: 1.0;"/><text fill="#000000" font-family="sans-serif" font-size="13" lengthAdjust="spacingAndGlyphs" textLength="84" x="270.5" y="38.397">not a mem op</text><!--link memop to compare_rd--><path d="M172.321,58.2038 C158.6695,86.4547 135.8301,133.7196 115.8734,175.019 " fill="none" id="memop-compare_rd" style="stroke: #A80036; stroke-width: 1.0;"/><polygon fill="#A80036" points="113.5795,179.766,121.097,173.403,115.755,175.2641,113.8939,169.9222,113.5795,179.766" style="stroke: #A80036; stroke-width: 1.0;"/><text fill="#000000" font-family="sans-serif" font-size="13" lengthAdjust="spacingAndGlyphs" textLength="45" x="203.5" y="102.897">load op</text><text fill="#000000" font-family="sans-serif" font-size="13" lengthAdjust="spacingAndGlyphs" textLength="137" x="157.5" y="120.603">victimway = !victimway</text><!--link memop to compare_wr--><path d="M229.6527,51.8629 C321.3391,90.1655 530.1984,177.4179 643.3162,224.6737 " fill="none" id="memop-compare_wr" style="stroke: #A80036; stroke-width: 1.0;"/><polygon fill="#A80036" points="647.9644,226.6155,641.2017,219.4555,643.3508,224.6882,638.118,226.8372,647.9644,226.6155" style="stroke: #A80036; stroke-width: 1.0;"/><text fill="#000000" font-family="sans-serif" font-size="13" lengthAdjust="spacingAndGlyphs" textLength="50" x="449" y="102.897">store op</text><text fill="#000000" font-family="sans-serif" font-size="13" lengthAdjust="spacingAndGlyphs" textLength="137" x="405.5" y="120.603">victimway = !victimway</text><!--link compare_wr to acc_read--><path d="M694.0375,358.203 C684.8466,377.1039 672.3826,394.7329 655.5,407 C594.1387,451.5856 386.9515,411.5486 315.5,437 C305.4019,440.597 295.3389,445.1193 285.515,450.221 " fill="none" id="compare_wr-acc_read" style="stroke: #A80036; stroke-width: 1.0;"/><polygon fill="#A80036" points="281.0189,452.6045,290.8441,451.923,285.4365,450.2625,287.0969,444.8548,281.0189,452.6045" style="stroke: #A80036; stroke-width: 1.0;"/><text fill="#000000" font-family="sans-serif" font-size="13" lengthAdjust="spacingAndGlyphs" textLength="229" x="674.5" y="402.897">clk, !(hit1 | hit2) + (!valid &amp; (hit1 | hit2))</text><!--link compare_wr to load_done--><path d="M791.0508,277.4168 C854.6265,300.5044 934.3757,343.0804 912.5,407 C815.8666,689.3576 523.1044,931.142 425.5311,1005.7678 " fill="none" id="compare_wr-load_done" style="stroke: #A80036; stroke-width: 1.0;"/><polygon fill="#A80036" points="421.3102,1008.9848,430.8929,1006.7106,425.2869,1005.954,426.0436,1000.3479,421.3102,1008.9848" style="stroke: #A80036; stroke-width: 1.0;"/><text fill="#000000" font-family="sans-serif" font-size="13" lengthAdjust="spacingAndGlyphs" textLength="199" x="777.5" y="676.897">clk, (hit1 &amp; valid1) | (hit2 &amp; valid2)</text><text fill="#000000" font-family="sans-serif" font-size="13" lengthAdjust="spacingAndGlyphs" textLength="183" x="787" y="694.603">srcout=cache_(hit1 ? hit1 : hit2)</text><!--link compare_rd to compare_rd_done--><path d="M147.2702,256.5 C162.5418,256.5 178.7409,256.5 194.1793,256.5 " fill="none" id="compare_rd-compare_rd_done" style="stroke: #A80036; stroke-width: 1.0;"/><polygon fill="#A80036" points="199.3833,256.5,190.3833,252.5,194.3833,256.5,190.3833,260.5,199.3833,256.5" style="stroke: #A80036; stroke-width: 1.0;"/><text fill="#000000" font-family="sans-serif" font-size="13" lengthAdjust="spacingAndGlyphs" textLength="16" x="165.25" y="249.397">clk</text><!--link *start to compare_rd--><path d="M76.5,43.1841 C76.5,66.3425 76.5,124.8126 76.5,174.691 " fill="none" id="*start-compare_rd" style="stroke: #A80036; stroke-width: 1.0;"/><polygon fill="#A80036" points="76.5,179.7978,80.5,170.7978,76.5,174.7978,72.5,170.7978,76.5,179.7978" style="stroke: #A80036; stroke-width: 1.0;"/><!--link compare_rd_done to put_into_bank--><path d="M281.6027,281.6091 C294.2602,307.998 314.5988,350.7675 331.5,388 C345.4796,418.7963 360.6822,453.5934 372.5346,481.0336 " fill="none" id="compare_rd_done-put_into_bank" style="stroke: #A80036; stroke-width: 1.0;"/><polygon fill="#A80036" points="374.5571,485.7199,374.6634,475.8716,372.5758,481.1292,367.3182,479.0417,374.5571,485.7199" style="stroke: #A80036; stroke-width: 1.0;"/><text fill="#000000" font-family="sans-serif" font-size="13" lengthAdjust="spacingAndGlyphs" textLength="307" x="339.5" y="402.897">!(hit1 &amp; hit2) &amp; (!(valid1 &amp; valid2) + !(dirty1 &amp; dirty2))</text><!--link compare_rd_done to goodhit--><path d="M250.1252,281.584 C230.8654,304.8022 199.2455,338.5773 164.5,358 C117.642,384.1936 80.4091,345.5881 47.5,388 C-12.2243,464.9703 35.3042,589.5123 63.4662,648.0888 " fill="none" id="compare_rd_done-goodhit" style="stroke: #A80036; stroke-width: 1.0;"/><polygon fill="#A80036" points="65.7925,652.87,65.4517,643.027,63.6049,648.374,58.258,646.5272,65.7925,652.87" style="stroke: #A80036; stroke-width: 1.0;"/><text fill="#000000" font-family="sans-serif" font-size="13" lengthAdjust="spacingAndGlyphs" textLength="104" x="48.5" y="402.897">valid &amp; (hit | hit2)</text><!--link goodhit to load_done--><path d="M99.6687,708.2441 C134.3509,757.5622 211.0386,862.6647 287.5,941 C310.6735,964.7414 339.7683,988.6763 361.6109,1005.6578 " fill="none" id="goodhit-load_done" style="stroke: #A80036; stroke-width: 1.0;"/><polygon fill="#A80036" points="365.6019,1008.7461,360.9322,1000.0747,361.6476,1005.6861,356.0362,1006.4015,365.6019,1008.7461" style="stroke: #A80036; stroke-width: 1.0;"/><!--link compare_rd_done to acc_read--><path d="M240.627,281.8557 C215.3152,306.1681 180.3145,345.3861 165.5,388 C160.6797,401.8655 158.7899,416.9262 158.7317,431.8846 " fill="none" id="compare_rd_done-acc_read" style="stroke: #A80036; stroke-width: 1.0;"/><polygon fill="#A80036" points="158.7806,436.9517,162.6935,427.9135,158.7323,431.9519,154.6939,427.9907,158.7806,436.9517" style="stroke: #A80036; stroke-width: 1.0;"/><text fill="#000000" font-family="sans-serif" font-size="13" lengthAdjust="spacingAndGlyphs" textLength="160" x="166.5" y="402.897">(valid &amp; dirty &amp; !(hit | hit2))</text><!--link acc_read to put_into_bank--><path d="M281.2772,530 C297.1428,530 313.1458,530 327.9003,530 " fill="none" id="acc_read-put_into_bank" style="stroke: #A80036; stroke-width: 1.0;"/><polygon fill="#A80036" points="333.2771,530,324.2771,526,328.2771,530,324.2771,534,333.2771,530" style="stroke: #A80036; stroke-width: 1.0;"/><text fill="#000000" font-family="sans-serif" font-size="13" lengthAdjust="spacingAndGlyphs" textLength="16" x="299.25" y="522.897">clk</text><!--link put_into_bank to acc_write--><path d="M393.5,574.0151 C393.5,615.1612 393.5,678.2406 393.5,732.5891 " fill="none" id="put_into_bank-acc_write" style="stroke: #A80036; stroke-width: 1.0;"/><polygon fill="#A80036" points="393.5,737.8203,397.5,728.8203,393.5,732.8203,389.5,728.8203,393.5,737.8203" style="stroke: #A80036; stroke-width: 1.0;"/><text fill="#000000" font-family="sans-serif" font-size="13" lengthAdjust="spacingAndGlyphs" textLength="16" x="394.5" y="685.897">clk</text><!--link acc_write to load_done--><path d="M393.5,941.1748 C393.5,961.3092 393.5,981.0419 393.5,996.731 " fill="none" id="acc_write-load_done" style="stroke: #A80036; stroke-width: 1.0;"/><polygon fill="#A80036" points="393.5,1001.8914,397.5,992.8914,393.5,996.8914,389.5,992.8914,393.5,1001.8914" style="stroke: #A80036; stroke-width: 1.0;"/><!--
@startuml
skinparam state {
	backgroundColor<<MetaState>> Gold
	backgroundColor<<MinorMetaState>> IndianRed
	backgroundColor<<Jump>> Gold
	backgroundColor<<JumpMinor>> IndianRed
	backgroundColor<<JumpClkRes>> Cyan
}

state "is mem op" as memop
[*] -> memop: clk
memop - -> memop: not a mem op
memop -d-> compare_rd: load op\nvictimway = !victimway
memop -d-> compare_wr: store op\nvictimway = !victimway

state "Do Compare Read" as compare_rd: comp_1=1\nwrite_1=0\ncomp_2=1\nwrite_2=0\ntag_in=addr[15:11]\nindex=addr[10:3]\noffset=addr[2:0]
state "Do Compare Write" as compare_wr: comp=1\nwrite=1\ntag_in=addr[15:11]\nindex=addr[10:3]\noffset=addr[2:0]\ndata_in=data_in\ntag_in=addr[15:11]\noffset=addr[2:0]\n\nsrcout=cache
compare_wr - -> acc_read: clk, !(hit1 | hit2) + (!valid & (hit1 | hit2))
compare_wr - -> load_done     : clk, (hit1 & valid1) | (hit2 & valid2)\n srcout=cache_(hit1 ? hit1 : hit2)

compare_rd -> compare_rd_done: clk
[*] -> compare_rd
compare_rd_done -d-> put_into_bank: !(hit1 & hit2) & (!(valid1 & valid2) + !(dirty1 & dirty2))

state "Good Hit" as goodhit: srcout=cache
compare_rd_done - -> goodhit: valid & (hit | hit2)
goodhit - -> load_done
compare_rd_done - -> acc_read: (valid & dirty & !(hit | hit2))
acc_read -> put_into_bank: clk
put_into_bank - -> acc_write: clk
acc_write - -> load_done
state "Access Read" as acc_read: comp=0\nwrite=0\nindex=addr[10:3]\noffset=addr[2:0]\n\nbank.Addr[15:11]=addr[15:11]\nbank.Addr[10:3]=cache.index_out\nbank.Addr[2:0]=cacheoffset_out\n
state "Evict + Replace" as put_into_bank: addr=addr\nrd=1\nwr=0
state "Access Write" as acc_write: comp=0\nwrite=1\ntag_in=addr[15:11]\nindex=addr[10:3]\noffset=addr[2:0]\nvalid_in=1\ndata_in=bank.DataOut[15:0]\n\n\nsrcout=bank
state "Done" as load_done: srcout



@enduml

PlantUML version 1.2019.04(Fri Mar 29 10:44:36 CDT 2019)
(GPL source distribution)
Java Runtime: OpenJDK Runtime Environment
JVM: OpenJDK 64-Bit Server VM
Java Version: 1.8.0_191-b12
Operating System: Linux
OS Version: 5.0.5
Default Encoding: UTF-8
Language: en
Country: US
--></g></svg>