<?xml version="1.0" encoding="UTF-8" standalone="yes"?><svg xmlns="http://www.w3.org/2000/svg" xmlns:xlink="http://www.w3.org/1999/xlink" height="352px" style="width:146px;height:352px;" version="1.1" viewBox="0 0 146 352" width="146px"><defs><filter height="300%" id="fmzx4b7" width="300%" x="-1" y="-1"><feGaussianBlur result="blurOut" stdDeviation="2.0"/><feColorMatrix in="blurOut" result="blurOut2" type="matrix" values="0 0 0 0 0 0 0 0 0 0 0 0 0 0 0 0 0 0 .4 0"/><feOffset dx="4.0" dy="4.0" in="blurOut2" result="blurOut3"/><feBlend in="SourceGraphic" in2="blurOut3" mode="normal"/></filter></defs><g><ellipse cx="71.5" cy="18" fill="#000000" filter="url(#fmzx4b7)" rx="10" ry="10" style="stroke: none; stroke-width: 1.0;"/><rect fill="#FEFECE" filter="url(#fmzx4b7)" height="55.412" rx="12.5" ry="12.5" style="stroke: #A80036; stroke-width: 1.5;" width="131" x="6" y="88"/><line style="stroke: #A80036; stroke-width: 1.5;" x1="6" x2="137" y1="117.0679" y2="117.0679"/><text fill="#000000" font-family="sans-serif" font-size="14" lengthAdjust="spacingAndGlyphs" textLength="64" x="39.5" y="107.9659">EdgeWait</text><text fill="#000000" font-family="sans-serif" font-size="12" lengthAdjust="spacingAndGlyphs" textLength="111" x="11" y="134.896">"This is a comment"</text><rect fill="#FEFECE" filter="url(#fmzx4b7)" height="40" rx="12.5" ry="12.5" style="stroke: #A80036; stroke-width: 1.5;" width="50" x="46.5" y="203"/><text fill="#000000" font-family="sans-serif" font-size="14" lengthAdjust="spacingAndGlyphs" textLength="40" x="51.5" y="228.432">Check</text><rect fill="#FEFECE" filter="url(#fmzx4b7)" height="40" rx="12.5" ry="12.5" style="stroke: #A80036; stroke-width: 1.5;" width="50" x="46.5" y="303"/><text fill="#000000" font-family="sans-serif" font-size="14" lengthAdjust="spacingAndGlyphs" textLength="26" x="58.5" y="328.432">Idle</text><path d="M71.5,28.067 C71.5,40.8753 71.5,63.6264 71.5,82.7099 " fill="none" style="stroke: #A80036; stroke-width: 1.0;"/><polygon fill="#A80036" points="71.5,87.9839,75.5,78.9839,71.5,82.9839,67.5,78.9839,71.5,87.9839" style="stroke: #A80036; stroke-width: 1.0;"/><path d="M71.5,143.1839 C71.5,159.9514 71.5,181.1843 71.5,197.5345 " fill="none" style="stroke: #A80036; stroke-width: 1.0;"/><polygon fill="#A80036" points="71.5,202.8786,75.5,193.8786,71.5,197.8786,67.5,193.8786,71.5,202.8786" style="stroke: #A80036; stroke-width: 1.0;"/><path d="M71.5,243.2365 C71.5,258.9595 71.5,280.8563 71.5,297.7304 " fill="none" style="stroke: #A80036; stroke-width: 1.0;"/><polygon fill="#A80036" points="71.5,302.7936,75.5,293.7936,71.5,297.7936,67.5,293.7936,71.5,302.7936" style="stroke: #A80036; stroke-width: 1.0;"/></g></svg>